<mxfile host="app.diagrams.net" modified="2022-05-16T06:58:15.669Z" agent="5.0 (X11)" etag="YKTyHGjpLCsMOtJUXTV0" version="18.0.4" type="github">
  <diagram id="YaeZ9LwO6yXLL_ELUhZh" name="Page-1">
    <mxGraphModel dx="1387" dy="729" grid="1" gridSize="10" guides="1" tooltips="1" connect="1" arrows="1" fold="1" page="1" pageScale="1" pageWidth="850" pageHeight="1100" math="0" shadow="0">
      <root>
        <mxCell id="0" />
        <mxCell id="1" parent="0" />
        <mxCell id="YN2cPPG3Nbpng9hzcAlQ-41" style="edgeStyle=orthogonalEdgeStyle;rounded=0;orthogonalLoop=1;jettySize=auto;html=1;fontSize=14;" edge="1" parent="1" source="YN2cPPG3Nbpng9hzcAlQ-28" target="YN2cPPG3Nbpng9hzcAlQ-40">
          <mxGeometry relative="1" as="geometry" />
        </mxCell>
        <mxCell id="YN2cPPG3Nbpng9hzcAlQ-28" value="" style="rounded=0;whiteSpace=wrap;html=1;fontSize=14;fillColor=none;dashed=1;" vertex="1" parent="1">
          <mxGeometry x="620" y="120" width="220" height="190" as="geometry" />
        </mxCell>
        <mxCell id="YN2cPPG3Nbpng9hzcAlQ-14" style="edgeStyle=orthogonalEdgeStyle;rounded=0;orthogonalLoop=1;jettySize=auto;html=1;entryX=0;entryY=0.5;entryDx=0;entryDy=0;" edge="1" parent="1" source="YN2cPPG3Nbpng9hzcAlQ-1" target="YN2cPPG3Nbpng9hzcAlQ-10">
          <mxGeometry relative="1" as="geometry" />
        </mxCell>
        <mxCell id="YN2cPPG3Nbpng9hzcAlQ-1" value="探测点 1" style="rounded=1;whiteSpace=wrap;html=1;fillColor=#f8cecc;strokeColor=#b85450;" vertex="1" parent="1">
          <mxGeometry x="90" y="140" width="80" height="30" as="geometry" />
        </mxCell>
        <mxCell id="YN2cPPG3Nbpng9hzcAlQ-15" style="edgeStyle=orthogonalEdgeStyle;rounded=0;orthogonalLoop=1;jettySize=auto;html=1;entryX=0;entryY=0.5;entryDx=0;entryDy=0;" edge="1" parent="1" source="YN2cPPG3Nbpng9hzcAlQ-2" target="YN2cPPG3Nbpng9hzcAlQ-11">
          <mxGeometry relative="1" as="geometry" />
        </mxCell>
        <mxCell id="YN2cPPG3Nbpng9hzcAlQ-2" value="探测点 2" style="rounded=1;whiteSpace=wrap;html=1;fillColor=#f8cecc;strokeColor=#b85450;" vertex="1" parent="1">
          <mxGeometry x="90" y="180" width="80" height="30" as="geometry" />
        </mxCell>
        <mxCell id="YN2cPPG3Nbpng9hzcAlQ-16" style="edgeStyle=orthogonalEdgeStyle;rounded=0;orthogonalLoop=1;jettySize=auto;html=1;entryX=0;entryY=0.5;entryDx=0;entryDy=0;" edge="1" parent="1" source="YN2cPPG3Nbpng9hzcAlQ-3" target="YN2cPPG3Nbpng9hzcAlQ-12">
          <mxGeometry relative="1" as="geometry" />
        </mxCell>
        <mxCell id="YN2cPPG3Nbpng9hzcAlQ-3" value="探测点 N" style="rounded=1;whiteSpace=wrap;html=1;fillColor=#f8cecc;strokeColor=#b85450;" vertex="1" parent="1">
          <mxGeometry x="90" y="260" width="80" height="30" as="geometry" />
        </mxCell>
        <mxCell id="YN2cPPG3Nbpng9hzcAlQ-4" value="&lt;b style=&quot;font-size: 14px;&quot;&gt;...&lt;/b&gt;" style="text;html=1;strokeColor=none;fillColor=none;align=center;verticalAlign=middle;whiteSpace=wrap;rounded=0;horizontal=0;fontSize=14;" vertex="1" parent="1">
          <mxGeometry x="100" y="221" width="50" height="30" as="geometry" />
        </mxCell>
        <mxCell id="YN2cPPG3Nbpng9hzcAlQ-5" value="已知位置的地标节点集合" style="rounded=0;whiteSpace=wrap;html=1;fillColor=#d5e8d4;strokeColor=#82b366;" vertex="1" parent="1">
          <mxGeometry x="270" y="110" width="80" height="200" as="geometry" />
        </mxCell>
        <mxCell id="YN2cPPG3Nbpng9hzcAlQ-21" style="edgeStyle=orthogonalEdgeStyle;rounded=0;orthogonalLoop=1;jettySize=auto;html=1;entryX=0;entryY=0.5;entryDx=0;entryDy=0;fontSize=14;" edge="1" parent="1" source="YN2cPPG3Nbpng9hzcAlQ-10" target="YN2cPPG3Nbpng9hzcAlQ-18">
          <mxGeometry relative="1" as="geometry" />
        </mxCell>
        <mxCell id="YN2cPPG3Nbpng9hzcAlQ-10" value="探测点 1 的探测结果" style="rounded=1;whiteSpace=wrap;html=1;fillColor=#f8cecc;strokeColor=#b85450;" vertex="1" parent="1">
          <mxGeometry x="420" y="140" width="150" height="30" as="geometry" />
        </mxCell>
        <mxCell id="YN2cPPG3Nbpng9hzcAlQ-22" style="edgeStyle=orthogonalEdgeStyle;rounded=0;orthogonalLoop=1;jettySize=auto;html=1;fontSize=14;" edge="1" parent="1" source="YN2cPPG3Nbpng9hzcAlQ-11" target="YN2cPPG3Nbpng9hzcAlQ-19">
          <mxGeometry relative="1" as="geometry" />
        </mxCell>
        <mxCell id="YN2cPPG3Nbpng9hzcAlQ-11" value="探测点 2 的探测结果" style="rounded=1;whiteSpace=wrap;html=1;fillColor=#f8cecc;strokeColor=#b85450;" vertex="1" parent="1">
          <mxGeometry x="420" y="180" width="150" height="30" as="geometry" />
        </mxCell>
        <mxCell id="YN2cPPG3Nbpng9hzcAlQ-23" style="edgeStyle=orthogonalEdgeStyle;rounded=0;orthogonalLoop=1;jettySize=auto;html=1;entryX=0;entryY=0.5;entryDx=0;entryDy=0;fontSize=14;" edge="1" parent="1" source="YN2cPPG3Nbpng9hzcAlQ-12" target="YN2cPPG3Nbpng9hzcAlQ-20">
          <mxGeometry relative="1" as="geometry" />
        </mxCell>
        <mxCell id="YN2cPPG3Nbpng9hzcAlQ-12" value="探测点 N 的探测结果" style="rounded=1;whiteSpace=wrap;html=1;fillColor=#f8cecc;strokeColor=#b85450;" vertex="1" parent="1">
          <mxGeometry x="420" y="260" width="150" height="30" as="geometry" />
        </mxCell>
        <mxCell id="YN2cPPG3Nbpng9hzcAlQ-17" value="&lt;b style=&quot;font-size: 14px;&quot;&gt;...&lt;/b&gt;" style="text;html=1;strokeColor=none;fillColor=none;align=center;verticalAlign=middle;whiteSpace=wrap;rounded=0;horizontal=0;fontSize=14;" vertex="1" parent="1">
          <mxGeometry x="480" y="221" width="50" height="30" as="geometry" />
        </mxCell>
        <mxCell id="YN2cPPG3Nbpng9hzcAlQ-18" value="探测点 1 的时延转换距离函数" style="rounded=1;whiteSpace=wrap;html=1;fillColor=#f8cecc;strokeColor=#b85450;" vertex="1" parent="1">
          <mxGeometry x="640" y="140" width="190" height="30" as="geometry" />
        </mxCell>
        <mxCell id="YN2cPPG3Nbpng9hzcAlQ-19" value="探测点 2 的时延转换距离函数" style="rounded=1;whiteSpace=wrap;html=1;fillColor=#f8cecc;strokeColor=#b85450;" vertex="1" parent="1">
          <mxGeometry x="640" y="180" width="190" height="30" as="geometry" />
        </mxCell>
        <mxCell id="YN2cPPG3Nbpng9hzcAlQ-20" value="探测点 N 的时延转换距离函数" style="rounded=1;whiteSpace=wrap;html=1;fillColor=#f8cecc;strokeColor=#b85450;" vertex="1" parent="1">
          <mxGeometry x="640" y="260" width="190" height="30" as="geometry" />
        </mxCell>
        <mxCell id="YN2cPPG3Nbpng9hzcAlQ-35" style="edgeStyle=orthogonalEdgeStyle;rounded=0;orthogonalLoop=1;jettySize=auto;html=1;entryX=0;entryY=0.5;entryDx=0;entryDy=0;fontSize=14;" edge="1" parent="1" source="YN2cPPG3Nbpng9hzcAlQ-24" target="YN2cPPG3Nbpng9hzcAlQ-32">
          <mxGeometry relative="1" as="geometry" />
        </mxCell>
        <mxCell id="YN2cPPG3Nbpng9hzcAlQ-24" value="目标节点" style="rounded=0;whiteSpace=wrap;html=1;fillColor=#dae8fc;strokeColor=#6c8ebf;" vertex="1" parent="1">
          <mxGeometry x="385" y="370" width="80" height="60" as="geometry" />
        </mxCell>
        <mxCell id="YN2cPPG3Nbpng9hzcAlQ-27" style="edgeStyle=orthogonalEdgeStyle;rounded=0;orthogonalLoop=1;jettySize=auto;html=1;exitX=0.5;exitY=1;exitDx=0;exitDy=0;entryX=0;entryY=0.5;entryDx=0;entryDy=0;fontSize=14;" edge="1" parent="1" source="YN2cPPG3Nbpng9hzcAlQ-26" target="YN2cPPG3Nbpng9hzcAlQ-24">
          <mxGeometry relative="1" as="geometry" />
        </mxCell>
        <mxCell id="YN2cPPG3Nbpng9hzcAlQ-26" value="" style="rounded=0;whiteSpace=wrap;html=1;fontSize=14;fillColor=none;dashed=1;" vertex="1" parent="1">
          <mxGeometry x="70" y="120" width="120" height="190" as="geometry" />
        </mxCell>
        <mxCell id="YN2cPPG3Nbpng9hzcAlQ-42" style="edgeStyle=orthogonalEdgeStyle;rounded=0;orthogonalLoop=1;jettySize=auto;html=1;entryX=0;entryY=0.5;entryDx=0;entryDy=0;fontSize=14;" edge="1" parent="1" source="YN2cPPG3Nbpng9hzcAlQ-32" target="YN2cPPG3Nbpng9hzcAlQ-40">
          <mxGeometry relative="1" as="geometry" />
        </mxCell>
        <mxCell id="YN2cPPG3Nbpng9hzcAlQ-32" value="" style="rounded=0;whiteSpace=wrap;html=1;fontSize=14;fillColor=none;dashed=1;" vertex="1" parent="1">
          <mxGeometry x="620" y="330" width="220" height="140" as="geometry" />
        </mxCell>
        <mxCell id="YN2cPPG3Nbpng9hzcAlQ-33" value="探测点 1 和目标节点的时延" style="rounded=1;whiteSpace=wrap;html=1;fillColor=#f8cecc;strokeColor=#b85450;" vertex="1" parent="1">
          <mxGeometry x="640" y="340" width="190" height="30" as="geometry" />
        </mxCell>
        <mxCell id="YN2cPPG3Nbpng9hzcAlQ-34" value="探测点 N 和目标节点的时延" style="rounded=1;whiteSpace=wrap;html=1;fillColor=#f8cecc;strokeColor=#b85450;" vertex="1" parent="1">
          <mxGeometry x="640" y="430" width="190" height="30" as="geometry" />
        </mxCell>
        <mxCell id="YN2cPPG3Nbpng9hzcAlQ-36" value="探测点 2 和目标节点的时延" style="rounded=1;whiteSpace=wrap;html=1;fillColor=#f8cecc;strokeColor=#b85450;" vertex="1" parent="1">
          <mxGeometry x="640" y="374" width="190" height="30" as="geometry" />
        </mxCell>
        <mxCell id="YN2cPPG3Nbpng9hzcAlQ-37" value="探测点 1 和目标节点的距离" style="rounded=1;whiteSpace=wrap;html=1;fillColor=#f8cecc;strokeColor=#b85450;" vertex="1" parent="1">
          <mxGeometry x="980" y="200" width="100" height="59" as="geometry" />
        </mxCell>
        <mxCell id="YN2cPPG3Nbpng9hzcAlQ-38" value="探测点 2 和目标节点的距离" style="rounded=1;whiteSpace=wrap;html=1;fillColor=#f8cecc;strokeColor=#b85450;" vertex="1" parent="1">
          <mxGeometry x="980" y="269" width="100" height="59" as="geometry" />
        </mxCell>
        <mxCell id="YN2cPPG3Nbpng9hzcAlQ-39" value="探测点 N 和目标节点的距离" style="rounded=1;whiteSpace=wrap;html=1;fillColor=#f8cecc;strokeColor=#b85450;" vertex="1" parent="1">
          <mxGeometry x="980" y="359" width="100" height="59" as="geometry" />
        </mxCell>
        <mxCell id="YN2cPPG3Nbpng9hzcAlQ-40" value="" style="rounded=0;whiteSpace=wrap;html=1;fontSize=14;fillColor=none;dashed=1;" vertex="1" parent="1">
          <mxGeometry x="950" y="180" width="160" height="250" as="geometry" />
        </mxCell>
      </root>
    </mxGraphModel>
  </diagram>
</mxfile>
